<svg width="295" height="101" viewBox="0 0 295 101" fill="none" xmlns="http://www.w3.org/2000/svg">
<path d="M144.369 2.69778C152.03 0.943104 159.86 0.0383776 167.719 0C180.929 0 190.681 2.77422 196.976 8.32265C203.271 13.8711 206.418 22.5175 206.418 34.2618V97.1201H186.59V36.9056C186.59 23.6595 179.09 17.0365 164.09 17.0365C157.062 17.0097 150.085 18.2244 143.479 20.6245V97.1201H123.61V9.8469C130.206 6.61193 137.18 4.21044 144.369 2.69778V2.69778Z" fill="white"/>
<path d="M240.991 98.0373C235.885 96.5929 230.919 94.6923 226.153 92.3585V73.6224C231.045 76.7603 236.243 79.3951 241.665 81.4865C246.705 83.2498 252.015 84.1128 257.353 84.0359C262.749 84.0359 267.007 82.9298 270.127 80.7176C271.562 79.7905 272.739 78.5151 273.548 77.0102C274.357 75.5054 274.772 73.8201 274.754 72.1117C274.852 70.6287 274.554 69.1462 273.89 67.8164C273.227 66.4866 272.221 65.3573 270.977 64.5444C267.275 62.3544 263.344 60.5768 259.255 59.2433L254.898 57.7325C246.076 55.5923 239.049 52.4988 233.815 48.4521C228.581 44.4055 225.964 38.1106 225.964 29.5677C225.742 23.5674 227.616 17.6769 231.265 12.9089C234.738 8.53147 239.349 5.19468 244.592 3.26431C250.004 1.23059 255.741 0.202049 261.521 0.229311C266.699 0.21323 271.854 0.930774 276.831 2.36056C281.515 3.90024 286.067 5.81746 290.441 8.09334V25.1703C285.622 22.5781 280.669 20.2413 275.603 18.1696C271.747 16.8272 267.681 16.1876 263.598 16.2811C259.26 16.0828 254.949 17.0616 251.121 19.1138C249.675 19.8713 248.467 21.0148 247.631 22.4173C246.795 23.8197 246.365 25.4263 246.387 27.0587C246.272 28.8229 246.655 30.5839 247.492 32.1411C248.329 33.6983 249.586 34.9893 251.121 35.867C255.8 38.2984 260.749 40.1727 265.864 41.4514C270.989 42.8086 276.014 44.5167 280.905 46.5637C284.826 48.3682 288.213 51.1563 290.738 54.657C293.571 58.38 294.992 63.4608 295.001 69.8995C294.866 79.9892 291.174 87.525 283.926 92.5069C276.678 97.4888 267.82 99.9842 257.353 99.9932C251.836 100.072 246.334 99.4139 240.991 98.0373Z" fill="white"/>
<path d="M88.83 101H11.17C8.20834 100.997 5.36875 99.8197 3.27454 97.7255C1.18033 95.6312 0.00264788 92.7917 0 89.83V12.17C0.00264788 9.20834 1.18033 6.36875 3.27454 4.27454C5.36875 2.18033 8.20834 1.00265 11.17 1H88.83C91.7917 1.00265 94.6312 2.18033 96.7255 4.27454C98.8197 6.36875 99.9974 9.20834 100 12.17V89.83C99.9974 92.7917 98.8197 95.6312 96.7255 97.7255C94.6312 99.8197 91.7917 100.997 88.83 101V101ZM11.17 3.91C8.98094 3.91528 6.88304 4.78722 5.33513 6.33513C3.78722 7.88304 2.91528 9.98094 2.91 12.17V89.83C2.91528 92.0191 3.78722 94.117 5.33513 95.6649C6.88304 97.2128 8.98094 98.0847 11.17 98.09H88.83C91.0191 98.0847 93.117 97.2128 94.6649 95.6649C96.2128 94.117 97.0847 92.0191 97.09 89.83V12.17C97.0847 9.98094 96.2128 7.88304 94.6649 6.33513C93.117 4.78722 91.0191 3.91528 88.83 3.91H11.17Z" fill="white"/>
<path d="M22.5 67C22.5026 68.5189 23.1072 69.9748 24.1812 71.0488C25.2552 72.1228 26.7111 72.7274 28.23 72.73H71.77C73.2889 72.7274 74.7448 72.1228 75.8188 71.0488C76.8928 69.9748 77.4974 68.5189 77.5 67V43H22.5V67ZM47.71 56.73H56.88C57.1652 56.7567 57.4302 56.8888 57.6231 57.1006C57.816 57.3124 57.9229 57.5885 57.9229 57.875C57.9229 58.1615 57.816 58.4376 57.6231 58.6494C57.4302 58.8611 57.1652 58.9933 56.88 59.02H47.71C47.5506 59.0349 47.3899 59.0164 47.2381 58.9656C47.0864 58.9149 46.9468 58.833 46.8285 58.7252C46.7102 58.6174 46.6156 58.4861 46.551 58.3397C46.4863 58.1933 46.4529 58.035 46.4529 57.875C46.4529 57.7149 46.4863 57.5567 46.551 57.4103C46.6156 57.2639 46.7102 57.1326 46.8285 57.0248C46.9468 56.917 47.0864 56.8351 47.2381 56.7844C47.3899 56.7336 47.5506 56.7151 47.71 56.73V56.73ZM34.29 51.81C34.0787 51.5933 33.9604 51.3027 33.9604 51C33.9604 50.6973 34.0787 50.4067 34.29 50.19C34.396 50.083 34.5222 49.998 34.6612 49.94C34.8002 49.882 34.9494 49.8522 35.1 49.8522C35.2506 49.8522 35.3998 49.882 35.5388 49.94C35.6778 49.998 35.804 50.083 35.91 50.19L41.64 55.92C41.747 56.026 41.832 56.1522 41.89 56.2912C41.948 56.4302 41.9778 56.5794 41.9778 56.73C41.9778 56.8806 41.948 57.0298 41.89 57.1688C41.832 57.3078 41.747 57.434 41.64 57.54L35.91 63.27C35.804 63.377 35.6778 63.462 35.5388 63.52C35.3998 63.578 35.2506 63.6078 35.1 63.6078C34.9494 63.6078 34.8002 63.578 34.6612 63.52C34.5222 63.462 34.396 63.377 34.29 63.27C34.0787 63.0533 33.9604 62.7627 33.9604 62.46C33.9604 62.1573 34.0787 61.8667 34.29 61.65L39.21 56.73L34.29 51.81Z" fill="white"/>
<path d="M71.77 29.23H28.23C27.4745 29.2313 26.7267 29.3817 26.0295 29.6727C25.3323 29.9636 24.6994 30.3893 24.167 30.9253C23.6347 31.4614 23.2134 32.0973 22.9273 32.7965C22.6413 33.4957 22.4961 34.2445 22.5 35V40.73H77.5V35C77.504 34.2445 77.3587 33.4957 77.0727 32.7965C76.7866 32.0973 76.3653 31.4614 75.833 30.9253C75.3006 30.3893 74.6677 29.9636 73.9705 29.6727C73.2733 29.3817 72.5255 29.2313 71.77 29.23V29.23ZM31.67 38.4C31.2164 38.3941 30.7747 38.2542 30.4005 37.9979C30.0262 37.7416 29.7361 37.3803 29.5666 36.9596C29.3971 36.5388 29.3558 36.0773 29.4479 35.6332C29.54 35.189 29.7614 34.782 30.0842 34.4633C30.4071 34.1447 30.8169 33.9286 31.2622 33.8422C31.7075 33.7559 32.1684 33.8032 32.587 33.9781C33.0055 34.153 33.3629 34.4478 33.6144 34.8254C33.8658 35.2029 34 35.6464 34 36.1C34.0014 36.405 33.9418 36.7071 33.8249 36.9888C33.7079 37.2704 33.5358 37.5258 33.3188 37.7401C33.1017 37.9543 32.8441 38.1231 32.561 38.2364C32.2778 38.3497 31.9749 38.4053 31.67 38.4V38.4ZM38.54 38.4C38.0847 38.402 37.639 38.2688 37.2595 38.0172C36.8799 37.7657 36.5836 37.4072 36.408 36.9871C36.2323 36.567 36.1854 36.1043 36.273 35.6575C36.3606 35.2106 36.5789 34.7999 36.9001 34.4772C37.2214 34.1546 37.6312 33.9345 38.0776 33.8449C38.524 33.7554 38.987 33.8003 39.4079 33.9741C39.8287 34.1479 40.1885 34.4427 40.4417 34.8212C40.6948 35.1996 40.83 35.6447 40.83 36.1C40.83 36.7083 40.5891 37.2918 40.1599 37.7228C39.7307 38.1539 39.1483 38.3974 38.54 38.4V38.4ZM45.42 38.4C44.9647 38.402 44.519 38.2688 44.1395 38.0172C43.7599 37.7657 43.4636 37.4072 43.288 36.9871C43.1123 36.567 43.0654 36.1043 43.153 35.6575C43.2406 35.2106 43.4589 34.7999 43.7801 34.4772C44.1014 34.1546 44.5112 33.9345 44.9576 33.8449C45.404 33.7554 45.867 33.8003 46.2878 33.9741C46.7087 34.1479 47.0685 34.4427 47.3217 34.8212C47.5748 35.1996 47.71 35.6447 47.71 36.1C47.71 36.7083 47.4691 37.2918 47.0399 37.7228C46.6107 38.1539 46.0283 38.3974 45.42 38.4V38.4Z" fill="url(#paint0_linear)"/>
<defs>
<linearGradient id="paint0_linear" x1="2089.96" y1="303.965" x2="2250.05" y2="1090.48" gradientUnits="userSpaceOnUse">
<stop stop-color="white"/>
<stop offset="0.48" stop-color="#DC47F9"/>
<stop offset="1" stop-color="#B43CCC"/>
</linearGradient>
</defs>
</svg>
