<svg width="375" height="101" viewBox="0 0 375 101" fill="none" xmlns="http://www.w3.org/2000/svg">
<g clip-path="url(#clip0)">
<path d="M75.7101 12.47L64.6101 0.800031C64.6101 0.800031 63.5401 -0.899969 60.7701 0.660031L51.1601 6.00003C51.1601 6.00003 48.7401 6.85003 50.9501 9.34003L61.5501 20.94C61.5501 20.94 63.5501 23.36 65.7501 21.8L75.4901 15C75.6909 14.8631 75.8588 14.6832 75.9815 14.4735C76.1043 14.2637 76.1789 14.0293 76.1999 13.7872C76.221 13.5451 76.188 13.3013 76.1033 13.0735C76.0185 12.8457 75.8843 12.6396 75.7101 12.47Z" fill="#920031"/>
<path d="M59.7001 22.2901L48.3101 10.0001C48.3101 10.0001 46.8901 7.94012 43.6901 9.72012L31.6901 16.3401C31.6901 16.3401 28.9201 17.4001 31.1901 19.9601L43.1201 33.3201C43.1201 33.3201 45.1201 35.7401 48.3101 33.4601L59.0601 25.8501C59.0601 25.8501 61.5501 24.2801 59.7001 22.2901Z" fill="#920031"/>
<path d="M28.5301 21.8001C28.5301 21.8001 26.4701 19.0901 22.4801 21.2301L7.33008 29.5501C7.33008 29.5501 4.20008 30.8301 6.90008 34.2501L19.7801 49.2501C20.4685 49.9592 21.395 50.3883 22.381 50.4548C23.367 50.5213 24.3428 50.2204 25.1201 49.6101L40.1301 39.0001C40.1301 39.0001 42.6201 37.4401 40.1301 34.7301L28.5301 21.8001Z" fill="#920031"/>
<path d="M92.3601 29.91L80.9001 17.91C80.9001 17.91 79.7601 16.2 77.0601 18.13L68.0601 24.81C68.0601 24.81 66.2801 25.95 68.1301 28.09L79.7301 40.68C79.9592 40.9514 80.2424 41.1719 80.5617 41.3275C80.881 41.4831 81.2292 41.5703 81.5841 41.5835C81.939 41.5966 82.2928 41.5355 82.6227 41.4041C82.9527 41.2726 83.2515 41.0736 83.5001 40.82L92.1501 33C92.4291 32.8593 92.6667 32.6483 92.8395 32.3879C93.0123 32.1275 93.1143 31.8266 93.1355 31.5148C93.1567 31.203 93.0963 30.8911 92.9604 30.6097C92.8244 30.3283 92.6175 30.0871 92.3601 29.91Z" fill="#920031"/>
<path d="M66.46 29.69C66.1933 29.3194 65.8545 29.0066 65.4639 28.7701C65.0733 28.5337 64.639 28.3786 64.187 28.3142C63.735 28.2498 63.2746 28.2773 62.8335 28.3951C62.3924 28.513 61.9797 28.7187 61.62 29L50.3 37.09C50.3 37.09 47.53 38.37 50.45 41.5L62.62 55.1C62.62 55.1 64.54 57.37 67.38 54.88L77.7 45.56C77.7 45.56 79.41 43.92 77.13 41.5L66.46 29.69Z" fill="#00436A"/>
<path d="M60 56.8L47.67 43.07C47.67 43.07 45.75 40.01 42.12 42.72L27.75 53C27.75 53 24.48 54.64 27.54 58.27L40.84 73.64C40.84 73.64 43.05 76.56 46.53 73.57L59.91 61.71C60.2733 61.4153 60.5678 61.0448 60.7729 60.6243C60.978 60.2039 61.0886 59.7437 61.0972 59.276C61.1058 58.8083 61.012 58.3443 60.8225 57.9166C60.633 57.489 60.3523 57.1079 60 56.8Z" fill="#920031"/>
<path d="M108.72 47.27L97.06 35C97.06 35 95.49 33.5 93.43 35.57L85.1 43.14C85.1 43.14 83.39 44.64 85.38 46.84L97.27 59.51C97.27 59.51 99.19 62.07 100.97 60.01L108.87 51.01C108.87 51.01 110.79 49.33 108.72 47.27Z" fill="#920031"/>
<path d="M95.5601 61.3599L84.0001 48.4099C83.7711 48.0324 83.4567 47.7139 83.0821 47.4801C82.7076 47.2463 82.2833 47.1037 81.8436 47.0638C81.4039 47.0239 80.9609 47.0878 80.5504 47.2504C80.1399 47.413 79.7733 47.6698 79.4801 47.9999L69.0001 57.6599C69.0001 57.6599 66.3601 59.4399 69.2801 62.6599L82.0001 76.7299C82.0001 76.7299 84.1301 79.4299 86.5501 76.3699L95.9501 65.4799C96.3854 64.8589 96.5853 64.1031 96.5138 63.3481C96.4424 62.5931 96.1042 61.8882 95.5601 61.3599Z" fill="#920031"/>
<path d="M79.48 78.79L66.48 64.4199C66.48 64.4199 64.34 61.7799 61.14 64.8399L48.19 76.8399C48.19 76.8399 45.19 78.8999 48.26 82.6699L61.76 98.15C61.76 98.15 64.61 102.49 68.02 98.29L79.76 84.41C79.76 84.41 82.33 81.85 79.48 78.79Z" fill="#920031"/>
<path d="M37.85 75.79L24.05 60.39C24.05 60.39 21.89 57 17.82 60L1.71004 71.56C1.71004 71.56 -1.99996 73.4 1.47004 77.47L16.39 94.7C16.39 94.7 18.86 97.98 22.77 94.62L37.77 81.3C37.77 81.3 40.72 78.9 37.85 75.79Z" fill="#00436A"/>
<path d="M156.16 96.3102H155C155 96.2102 154.047 94.8202 152.14 92.1402C150.858 90.4687 149.723 88.6886 148.75 86.8202H148.66C148.76 88.2202 148.82 89.4202 148.82 90.4102C148.82 92.3635 148.863 94.3302 148.95 96.3102H147.49C147.577 94.4168 147.623 92.4168 147.63 90.3102C147.63 88.3102 147.58 86.4702 147.49 84.9402H149.15C149.932 86.3333 150.811 87.6699 151.78 88.9402C153.005 90.522 154.054 92.232 154.91 94.0402H155C154.9 92.6202 154.85 91.4202 154.85 90.4402C154.85 88.2869 154.81 86.4669 154.73 84.9802H156.21C156.12 86.5102 156.07 88.3102 156.07 90.3502C156.07 92.3902 156.07 94.4202 156.16 96.3102Z" fill="#920031"/>
<path d="M170.45 91.9203C170.487 92.5572 170.393 93.195 170.173 93.7938C169.953 94.3925 169.611 94.9394 169.17 95.4003C168.779 95.7984 168.312 96.1142 167.797 96.3288C167.281 96.5435 166.728 96.6528 166.17 96.6503C165.656 96.6581 165.146 96.564 164.669 96.3734C164.192 96.1829 163.757 95.8998 163.39 95.5403C162.99 95.1318 162.68 94.644 162.48 94.1083C162.281 93.5726 162.195 93.001 162.23 92.4303C162.193 91.7904 162.287 91.1497 162.507 90.5477C162.728 89.9458 163.069 89.3953 163.51 88.9303C163.899 88.5281 164.365 88.209 164.881 87.9924C165.396 87.7759 165.951 87.6663 166.51 87.6703C167.022 87.6628 167.531 87.7571 168.006 87.9476C168.482 88.1382 168.915 88.4212 169.28 88.7803C169.682 89.1944 169.993 89.6872 170.194 90.2277C170.396 90.7681 170.483 91.3445 170.45 91.9203ZM168.94 92.2303C168.953 91.378 168.716 90.5404 168.26 89.8203C168.052 89.4994 167.768 89.2345 167.433 89.0493C167.099 88.864 166.724 88.764 166.341 88.7581C165.959 88.7521 165.581 88.8405 165.24 89.0153C164.9 89.1901 164.608 89.446 164.39 89.7603C163.936 90.4476 163.702 91.2569 163.72 92.0803C163.701 92.9367 163.938 93.7792 164.4 94.5003C164.608 94.8243 164.898 95.0875 165.24 95.2632C165.583 95.4388 165.966 95.5206 166.35 95.5003C166.73 95.5184 167.108 95.4353 167.445 95.2596C167.782 95.0839 168.067 94.8219 168.27 94.5003C168.714 93.8273 168.948 93.0368 168.94 92.2303Z" fill="#920031"/>
<path d="M181.27 88.0502L180.88 89.4302C180.477 89.2618 180.046 89.1702 179.61 89.1602C179.128 89.1197 178.647 89.2554 178.257 89.5423C177.867 89.8292 177.595 90.2477 177.49 90.7202C177.49 93.3802 177.49 95.2502 177.49 96.3102H176C176.09 94.4702 176.14 93.0402 176.14 92.0302C176.146 90.6861 176.009 89.3451 175.73 88.0302L177.25 87.8102C177.333 88.2327 177.386 88.6603 177.41 89.0902H177.48C177.698 88.6933 178.013 88.3585 178.397 88.1171C178.78 87.8757 179.218 87.7356 179.67 87.7102C180.217 87.7448 180.756 87.8593 181.27 88.0502Z" fill="#920031"/>
<path d="M196.81 91.2703C196.891 90.6182 196.719 89.9597 196.33 89.4303C195.87 89.0971 195.306 88.9409 194.74 88.9903C194.008 89.0388 193.321 89.3642 192.82 89.9003C192.82 90.6103 192.82 91.3003 192.82 91.9803C192.82 92.9803 192.82 94.3903 192.88 96.3103H191.29C191.42 94.6503 191.48 92.9803 191.48 91.3103C191.561 90.6582 191.389 89.9997 191 89.4703C190.558 89.1397 190.01 88.9831 189.46 89.0303C188.7 89.0596 187.982 89.3864 187.46 89.9403C187.46 91.7803 187.46 93.9403 187.46 96.3503H185.88C185.99 94.3503 186.04 92.9503 186.04 92.0703C186.045 90.7273 185.914 89.3872 185.65 88.0703L187.18 87.8503L187.34 88.9103H187.42C187.738 88.5545 188.126 88.2679 188.559 88.0683C188.993 87.8688 189.463 87.7605 189.94 87.7503C191.31 87.7503 192.19 88.1403 192.59 88.9103H192.68C193.373 88.2201 194.294 87.8074 195.27 87.7503C196.06 87.6907 196.844 87.9179 197.48 88.3903C197.76 88.6929 197.972 89.0522 198.102 89.4438C198.231 89.8354 198.275 90.2503 198.23 90.6603C198.23 90.7703 198.23 90.9903 198.23 91.3203C198.23 91.6503 198.23 91.8603 198.23 91.9703C198.23 92.9703 198.23 94.3803 198.23 96.3003H196.65C196.74 94.7903 196.81 93.1103 196.81 91.2703Z" fill="#920031"/>
<path d="M210.56 96.3102H209.19C209.124 96.0453 209.09 95.7733 209.09 95.5002H209C208.194 96.1951 207.152 96.5531 206.09 96.5002C205.466 96.5171 204.856 96.3116 204.37 95.9202C204.125 95.7176 203.932 95.4595 203.807 95.1673C203.682 94.8751 203.628 94.5573 203.65 94.2402C203.643 93.8158 203.743 93.3965 203.94 93.0208C204.138 92.645 204.426 92.325 204.78 92.0902C205.53 91.5502 206.93 91.2702 208.98 91.2402C208.991 91.0804 208.991 90.9201 208.98 90.7602C209.016 90.493 208.982 90.221 208.882 89.9706C208.782 89.7201 208.62 89.4996 208.41 89.3302C207.879 89.0595 207.284 88.9385 206.69 88.9802C205.783 88.9796 204.88 89.0905 204 89.3102L204.15 88.1102C205.129 87.853 206.138 87.7285 207.15 87.7402C207.995 87.6855 208.835 87.9104 209.54 88.3802C209.842 88.6514 210.076 88.9903 210.222 89.3693C210.368 89.7482 210.422 90.1563 210.38 90.5602C210.38 90.8302 210.38 91.3202 210.38 92.0402C210.38 92.7602 210.38 93.2302 210.38 93.4702C210.35 94.4205 210.41 95.3714 210.56 96.3102ZM209 94.6202C209 93.7402 209 92.9502 209 92.2502C208.163 92.2234 207.326 92.3041 206.51 92.4902C206.113 92.552 205.752 92.7529 205.49 93.0571C205.228 93.3613 205.082 93.7488 205.08 94.1502C205.08 94.9402 205.64 95.3302 206.75 95.3302C207.56 95.3671 208.358 95.1155 209 94.6202Z" fill="#920031"/>
<path d="M218 96.3102H216.33C216.43 94.3902 216.48 92.2269 216.48 89.8202C216.502 87.9038 216.418 85.9876 216.23 84.0802L218 84.0002C217.89 85.5702 217.83 87.5202 217.83 89.8302C217.83 92.1402 217.9 94.3702 218 96.3102Z" fill="#920031"/>
<path d="M225.54 96.3102H224C224.08 95.1502 224.12 93.8202 224.12 92.3102C224.14 90.9008 224.039 89.4924 223.82 88.1002L225.55 87.8602C225.49 89.0702 225.45 90.5602 225.45 92.3102C225.42 93.7202 225.46 95.0502 225.54 96.3102ZM225.91 85.4402C225.912 85.7238 225.808 85.998 225.62 86.2102C225.519 86.3229 225.393 86.4112 225.253 86.4684C225.113 86.5256 224.961 86.5501 224.81 86.5402C224.681 86.5462 224.552 86.5233 224.432 86.4732C224.313 86.423 224.206 86.3468 224.12 86.2502C223.955 86.0627 223.865 85.8201 223.87 85.5702C223.868 85.2875 223.975 85.015 224.17 84.8102C224.274 84.702 224.4 84.6174 224.54 84.5622C224.68 84.507 224.83 84.4824 224.98 84.4902C225.107 84.4857 225.233 84.5083 225.35 84.5566C225.467 84.6049 225.573 84.6777 225.66 84.7702C225.823 84.955 225.912 85.1936 225.91 85.4402Z" fill="#920031"/>
<path d="M237.51 94.9103V96.3103H231.17L231.24 94.9603C231.55 94.6603 232.33 93.7503 233.59 92.2103C234.399 91.3642 235.095 90.4162 235.66 89.3903V89.3003C233.8 89.3003 232.32 89.3003 231.23 89.4103L231.28 88.0503H237.28L237.19 89.4103C236.71 89.9403 235.95 90.8603 234.9 92.1803C234.128 93.0206 233.476 93.9627 232.96 94.9803V95.0503C234.69 95.0503 236.21 95.0003 237.51 94.9103Z" fill="#920031"/>
<path d="M250.21 91.2002C250.21 91.4502 250.21 91.7802 250.21 92.2002L244.21 92.3102C244.26 93.1187 244.618 93.8773 245.21 94.4302C245.858 95.0208 246.714 95.3301 247.59 95.2902C248.403 95.2989 249.213 95.2014 250 95.0002L249.86 96.2202C249.068 96.4823 248.234 96.5975 247.4 96.5602C246.778 96.5946 246.156 96.5015 245.571 96.2865C244.986 96.0715 244.452 95.7393 244 95.3102C243.614 94.913 243.31 94.4436 243.106 93.9288C242.902 93.414 242.801 92.864 242.81 92.3102C242.763 91.115 243.143 89.942 243.88 89.0002C244.219 88.5566 244.659 88.2007 245.163 87.9624C245.668 87.724 246.222 87.6101 246.78 87.6302C247.254 87.5998 247.729 87.6735 248.171 87.8463C248.613 88.0191 249.012 88.2866 249.34 88.6302C249.944 89.3463 250.255 90.2644 250.21 91.2002ZM248.76 91.2002C248.76 89.5702 248.08 88.7602 246.76 88.7602C245.44 88.7602 244.55 89.6002 244.3 91.3002L248.76 91.2002Z" fill="#920031"/>
<path d="M263.27 96.3002H261.98C261.931 96.0399 261.907 95.7752 261.91 95.5102H261.81C261.455 95.8596 261.03 96.1295 260.563 96.3019C260.095 96.4743 259.597 96.5454 259.1 96.5102C258.598 96.529 258.099 96.4303 257.643 96.222C257.186 96.0136 256.785 95.7014 256.47 95.3102C255.804 94.4961 255.45 93.4717 255.47 92.4202C255.441 91.2212 255.826 90.0488 256.56 89.1002C256.922 88.6416 257.389 88.2761 257.922 88.0344C258.454 87.7926 259.036 87.6815 259.62 87.7102C260.336 87.6413 261.052 87.8488 261.62 88.2902H261.7C261.7 86.8502 261.65 85.4402 261.57 84.0502L263.22 83.9902C263.11 85.4602 263.06 87.3902 263.06 89.7702C263.06 92.1502 263.15 94.3902 263.27 96.3002ZM261.87 94.5902C261.87 92.7802 261.82 91.0502 261.73 89.3802C261.239 88.9913 260.627 88.7861 260 88.8002C259.579 88.7738 259.159 88.8511 258.775 89.0255C258.391 89.1999 258.057 89.466 257.8 89.8002C257.293 90.5178 257.037 91.3823 257.07 92.2602C257.045 93.0597 257.288 93.8445 257.76 94.4902C257.983 94.7846 258.275 95.0202 258.609 95.177C258.943 95.3338 259.311 95.407 259.68 95.3902C260.081 95.4182 260.483 95.3614 260.86 95.2235C261.238 95.0857 261.582 94.8699 261.87 94.5902Z" fill="#920031"/>
<path d="M283.66 93.3803C283.66 95.5203 282.16 96.5903 279.18 96.5903C278.197 96.6061 277.217 96.4815 276.27 96.2203L276.58 94.8603C277.47 95.1771 278.406 95.346 279.35 95.3603C281.35 95.3603 282.35 94.8003 282.35 93.6903C282.345 93.4064 282.273 93.1278 282.139 92.8774C282.005 92.627 281.813 92.4121 281.58 92.2503C280.955 91.8213 280.284 91.4624 279.58 91.1803C278.776 90.8667 278.027 90.4279 277.36 89.8803C277.08 89.6283 276.857 89.3197 276.705 88.9749C276.553 88.6301 276.477 88.257 276.48 87.8803C276.467 87.4857 276.54 87.093 276.696 86.73C276.852 86.3671 277.085 86.0429 277.38 85.7803C278.17 85.1308 279.18 84.8087 280.2 84.8803C281.155 84.8341 282.111 84.9251 283.04 85.1503L282.83 86.5303C281.919 86.2544 280.972 86.1162 280.02 86.1203C278.53 86.1203 277.78 86.6103 277.78 87.6103C277.782 87.8497 277.842 88.0851 277.955 88.2959C278.068 88.5068 278.231 88.6868 278.43 88.8203C279.016 89.1798 279.631 89.4876 280.27 89.7403C281.093 90.0491 281.867 90.4734 282.57 91.0003C282.92 91.2889 283.2 91.653 283.388 92.0652C283.577 92.4774 283.67 92.927 283.66 93.3803Z" fill="#920031"/>
<path d="M296 88.0503C295.702 89.277 295.262 90.4649 294.69 91.5903C293.955 93.1513 293.33 94.7619 292.82 96.4103C292.622 97.4311 292.246 98.4092 291.71 99.3003C291.384 99.6151 290.993 99.8544 290.565 100.001C290.136 100.148 289.68 100.199 289.23 100.15L289.16 98.9303C289.497 98.9403 289.832 98.8796 290.143 98.7521C290.455 98.6247 290.737 98.4333 290.97 98.1903C291.208 97.9461 291.395 97.6564 291.518 97.3385C291.642 97.0207 291.7 96.6812 291.69 96.3403C291.377 94.7423 290.838 93.1969 290.09 91.7503C289.02 89.3303 288.49 88.1003 288.49 88.0503H290.29C290.591 89.1241 290.955 90.1792 291.38 91.2103C291.885 92.3669 292.254 93.5784 292.48 94.8203H292.57C292.761 93.6978 293.069 92.5984 293.49 91.5403C293.939 90.4187 294.252 89.2468 294.42 88.0503H296Z" fill="#920031"/>
<path d="M306.58 94.0003C306.58 95.6903 305.5 96.5403 303.34 96.5403C302.439 96.5445 301.54 96.4473 300.66 96.2503L300.93 94.9703C301.711 95.2722 302.543 95.4215 303.38 95.4103C304.65 95.4103 305.28 95.0503 305.28 94.3303C305.283 94.1682 305.246 94.008 305.172 93.8634C305.099 93.7189 304.992 93.5942 304.86 93.5003C304.42 93.2202 303.95 92.9888 303.46 92.8102C302.821 92.5852 302.218 92.2686 301.67 91.8703C301.419 91.6808 301.214 91.4363 301.072 91.1555C300.93 90.8746 300.854 90.565 300.85 90.2503C300.848 89.93 300.914 89.613 301.043 89.32C301.172 89.027 301.362 88.7647 301.6 88.5503C302.243 88.0346 303.059 87.7842 303.88 87.8502C304.688 87.827 305.495 87.9111 306.28 88.1002L306 89.3003C305.307 89.0405 304.57 88.9149 303.83 88.9303C302.71 88.9303 302.16 89.2503 302.16 89.9303C302.158 90.0813 302.19 90.2309 302.254 90.3677C302.318 90.5045 302.413 90.6251 302.53 90.7203C302.983 91.0231 303.474 91.2651 303.99 91.4403C304.609 91.6625 305.194 91.9687 305.73 92.3502C305.991 92.5396 306.204 92.7875 306.351 93.0741C306.499 93.3607 306.577 93.6779 306.58 94.0003Z" fill="#920031"/>
<path d="M316.85 95.1103L316.75 96.2403C316.333 96.394 315.894 96.4785 315.45 96.4903C315.055 96.5391 314.654 96.4919 314.282 96.3526C313.909 96.2133 313.576 95.9861 313.31 95.6903C312.85 94.8184 312.652 93.8321 312.74 92.8503C312.74 91.9603 312.74 90.8503 312.74 89.3803C312.42 89.3803 311.94 89.3803 311.31 89.4303L311.36 88.1703C311.91 88.1703 312.36 88.1703 312.84 88.1703C312.84 87.8203 312.84 87.0003 312.92 85.6903L314.29 85.5503C314.19 86.7703 314.14 87.6403 314.14 88.1703C314.71 88.1703 315.55 88.1703 316.65 88.0803L316.59 89.3803C315.54 89.3803 314.7 89.3303 314.07 89.3303C314.07 90.2003 314.07 91.1903 314.07 92.3303C313.997 93.1396 314.128 93.9542 314.45 94.7003C314.616 94.9095 314.832 95.0727 315.079 95.1743C315.326 95.2758 315.595 95.3123 315.86 95.2803C316.195 95.2595 316.527 95.2025 316.85 95.1103Z" fill="#920031"/>
<path d="M329.16 91.2003C329.16 91.4503 329.16 91.7803 329.16 92.2003L323.16 92.3103C323.201 93.1211 323.56 93.883 324.16 94.4303C324.805 95.0193 325.657 95.3286 326.53 95.2903C327.363 95.3033 328.193 95.2058 329 95.0003L328.85 96.2203C328.058 96.4823 327.224 96.5975 326.39 96.5603C325.763 96.6041 325.133 96.5174 324.541 96.3057C323.949 96.094 323.407 95.7619 322.95 95.3303C322.562 94.9344 322.257 94.4652 322.053 93.9501C321.849 93.435 321.749 92.8843 321.76 92.3303C321.713 91.1288 322.092 89.9494 322.83 89.0003C323.17 88.5553 323.611 88.1985 324.118 87.9601C324.624 87.7216 325.181 87.6085 325.74 87.6303C326.212 87.5985 326.686 87.6717 327.127 87.8446C327.568 88.0175 327.965 88.2858 328.29 88.6303C328.894 89.3464 329.205 90.2645 329.16 91.2003ZM327.71 91.2003C327.71 89.5703 327.03 88.7603 325.71 88.7603C324.39 88.7603 323.5 89.6003 323.25 91.3003L327.71 91.2003Z" fill="#920031"/>
<path d="M345.65 91.2703C345.731 90.6181 345.559 89.9597 345.17 89.4303C344.711 89.0955 344.146 88.9391 343.58 88.9903C342.848 89.0408 342.162 89.3658 341.66 89.9003C341.66 90.6103 341.66 91.3003 341.66 91.9803C341.66 92.9803 341.66 94.3903 341.71 96.3103H340.1C340.23 94.6503 340.29 92.9803 340.29 91.3103C340.371 90.6581 340.199 89.9997 339.81 89.4703C339.364 89.1399 338.813 88.9834 338.26 89.0303C337.499 89.0574 336.78 89.3846 336.26 89.9403C336.26 91.7803 336.26 93.9403 336.26 96.3503H334.68C334.79 94.3503 334.85 92.9503 334.85 92.0703C334.855 90.7272 334.724 89.3872 334.46 88.0703L335.99 87.8503L336.14 88.9103H336.23C336.546 88.5543 336.932 88.2675 337.364 88.0678C337.796 87.8682 338.264 87.7601 338.74 87.7503C340.12 87.7503 341 88.1403 341.39 88.9103H341.49C342.183 88.2201 343.104 87.8074 344.08 87.7503C344.869 87.6925 345.654 87.9196 346.29 88.3903C346.57 88.6929 346.782 89.0522 346.912 89.4438C347.041 89.8354 347.085 90.2503 347.04 90.6603C347.04 90.7703 347.04 90.9903 347.04 91.3203C347.04 91.6503 347.04 91.8603 347.04 91.9703C347.04 92.9703 347.04 94.3803 347.04 96.3003H345.45C345.59 94.7903 345.65 93.1103 345.65 91.2703Z" fill="#920031"/>
<path d="M358.4 94.0003C358.4 95.6903 357.32 96.5403 355.15 96.5403C354.252 96.5448 353.356 96.4475 352.48 96.2503L352.75 94.9703C353.531 95.2722 354.363 95.4215 355.2 95.4103C356.46 95.4103 357.09 95.0503 357.09 94.3303C357.092 94.1682 357.056 94.008 356.982 93.8634C356.909 93.7189 356.802 93.5942 356.67 93.5003C356.23 93.2202 355.76 92.9888 355.27 92.8102C354.631 92.5852 354.028 92.2686 353.48 91.8703C353.227 91.683 353.022 91.4387 352.881 91.1572C352.74 90.8757 352.668 90.565 352.67 90.2503C352.669 89.9311 352.734 89.6151 352.861 89.3224C352.988 89.0297 353.175 88.7668 353.41 88.5503C354.053 88.0346 354.869 87.7842 355.69 87.8502C356.498 87.827 357.305 87.9111 358.09 88.1002L357.82 89.3502C357.127 89.0895 356.39 88.9639 355.65 88.9803C354.54 88.9803 353.98 89.3003 353.98 89.9803C353.978 90.1313 354.01 90.2809 354.074 90.4177C354.138 90.5546 354.233 90.6751 354.35 90.7702C354.803 91.0731 355.294 91.3151 355.81 91.4902C356.431 91.7079 357.017 92.0145 357.55 92.4003C357.804 92.585 358.012 92.8251 358.159 93.1023C358.307 93.3795 358.389 93.6866 358.4 94.0003Z" fill="#920031"/>
<path d="M226.68 23.6401C225.9 28.0801 223.753 36.3901 220.24 48.5701C216.727 60.7501 214.473 69.6635 213.48 75.3101L193.86 76.0701C194.287 73.6501 196.387 66.4601 200.16 54.5001C203.933 42.5401 206.267 34.0935 207.16 29.1601C208.08 23.9201 207.963 20.2935 206.81 18.2801C205.657 16.2668 203.323 15.2668 199.81 15.2801C195.43 15.2801 190.647 18.2801 185.46 24.2801C180.08 30.6334 176.203 38.1196 174.12 46.1801C171.1 57.0068 168.553 66.7268 166.48 75.3401L147.39 76.1001C155.51 50.0135 160.38 32.3868 162 23.2201C163.063 16.8153 163.797 10.3601 164.2 3.88013L183.21 2.00013C182.81 6.28013 182.107 11.2801 181.1 17.0001H182.16C189.913 6.42679 199.553 1.13679 211.08 1.13013C224.12 1.13013 229.32 8.63346 226.68 23.6401Z" fill="#00436A"/>
<path d="M295 2.34011L288.28 17.3401C282.831 15.6069 277.138 14.7628 271.42 14.8401C263.567 14.8401 259.233 17.2334 258.42 22.0201C257.86 25.1868 261.017 28.2601 267.89 31.2401C280.05 36.5334 285.33 43.7334 283.73 52.8401C280.843 69.2134 267.89 77.3968 244.87 77.3901C238.258 77.529 231.657 76.7687 225.25 75.1301L231.88 60.2501C237.32 62.2646 243.079 63.2808 248.88 63.2501C259.613 63.2501 265.413 60.7801 266.28 55.8401C266.9 52.3201 263.813 48.9868 257.02 45.8401C251.347 43.1734 247.277 40.5534 244.81 37.9801C243.124 36.239 241.894 34.1085 241.23 31.7779C240.565 29.4472 240.486 26.9886 241 24.6201C242.413 16.6201 246.373 10.6534 252.88 6.72011C259.729 2.69946 267.56 0.660325 275.5 0.830114C284 0.830114 290.47 1.33011 295 2.34011Z" fill="#00436A"/>
<path d="M374.12 2.72021C373.853 4.28021 369.247 9.48021 360.3 18.3202C351.353 27.1602 345.31 32.8269 342.17 35.3202L341.89 36.4502C343.83 39.7235 346.853 46.6369 350.96 57.1902C355.067 67.7435 356.983 73.7969 356.71 75.3502L334.45 76.1102C334.73 74.5035 333.903 69.9702 331.97 62.5102C330.642 57.0661 329.03 51.6954 327.14 46.4202H326.23C324.09 48.5869 320.373 53.5869 315.08 61.4202C309.787 69.2535 307.02 73.8869 306.78 75.3202L285.65 76.0802C285.95 74.3736 290.95 68.3169 300.65 57.9102C310.35 47.5035 317.21 40.6669 321.23 37.4002L321.5 36.2702C319.82 33.5502 317.183 27.7335 313.59 18.8202C309.997 9.90688 308.317 4.81688 308.55 3.55021L330.68 2.72021C330.447 4.05355 331.017 8.05355 332.39 14.7202C333.75 21.4002 334.93 25.9102 335.93 28.2802H336.93C338.93 26.3202 342.177 22.0535 346.67 15.4802C351.163 8.90688 353.523 4.94021 353.75 3.58021L374.12 2.72021Z" fill="#00436A"/>
</g>
<defs>
<clipPath id="clip0">
<rect width="374.12" height="100.15" fill="white"/>
</clipPath>
</defs>
</svg>
