<?xml version="1.0" encoding="utf-8"?>
<!-- Generator: Adobe Illustrator 25.4.1, SVG Export Plug-In . SVG Version: 6.00 Build 0)  -->
<svg version="1.1" id="Layer_1" xmlns="http://www.w3.org/2000/svg" xmlns:xlink="http://www.w3.org/1999/xlink" x="0px" y="0px"
	 viewBox="0 0 16 16" style="enable-background:new 0 0 16 16;" xml:space="preserve">
<style type="text/css">
	.st0{fill:#F48018;}
	.st1{fill:#AEB0B3;}
</style>
<g>
	<polygon class="st0" points="7.3,1.8 7.3,13.9 7.3,15.4 9.7,14.3 9.7,0.6 	"/>
	<polyline class="st1" points="15.7,5.8 16,9.2 11.3,8.2 	"/>
	<path class="st1" d="M10.1,5.1v1.5c1,0.2,1.9,0.5,2.6,1l1.7-1.1C13.3,5.8,11.8,5.3,10.1,5.1 M2.4,10.2c0-1.7,1.9-3.2,4.4-3.6V5.1
		C2.9,5.5,0,7.7,0,10.2c0,2.6,3.2,4.8,7.3,5.2v-1.5C4.5,13.5,2.4,12,2.4,10.2"/>
	<g>
		<polygon class="st0" points="7.3,1.8 7.3,13.9 7.3,15.4 9.7,14.3 9.7,0.6 		"/>
		<polyline class="st1" points="15.7,5.8 16,9.2 11.3,8.2 		"/>
		<path class="st1" d="M10.1,5.1v1.5c1,0.2,1.9,0.5,2.6,1l1.7-1.1C13.3,5.8,11.8,5.3,10.1,5.1 M2.4,10.2c0-1.7,1.9-3.2,4.4-3.6V5.1
			C2.9,5.5,0,7.7,0,10.2c0,2.6,3.2,4.8,7.3,5.2v-1.5C4.5,13.5,2.4,12,2.4,10.2"/>
	</g>
</g>
</svg>
